<mxfile host="app.diagrams.net" agent="Mozilla/5.0 (Windows NT 10.0; Win64; x64) AppleWebKit/537.36 (KHTML, like Gecko) Chrome/138.0.0.0 Safari/537.36" version="28.2.7" pages="2">
  <diagram name="lealtad" id="8zH7TcxPz3aNZjQDuvse">
    <mxGraphModel dx="808" dy="432" grid="1" gridSize="10" guides="1" tooltips="1" connect="1" arrows="1" fold="1" page="1" pageScale="1" pageWidth="850" pageHeight="1100" math="0" shadow="0">
      <root>
        <mxCell id="0" />
        <mxCell id="1" parent="0" />
        <mxCell id="OOM-nGGXsE_Pw0qRHjK8-4" value="ms Bonificaciones" style="shape=module;align=left;spacingLeft=20;align=center;verticalAlign=top;whiteSpace=wrap;html=1;" vertex="1" parent="1">
          <mxGeometry x="348.3" y="92" width="130" height="50" as="geometry" />
        </mxCell>
        <mxCell id="OOM-nGGXsE_Pw0qRHjK8-9" value="ms linksers" style="shape=module;align=left;spacingLeft=20;align=center;verticalAlign=top;whiteSpace=wrap;html=1;" vertex="1" parent="1">
          <mxGeometry x="490" y="300" width="100" height="50" as="geometry" />
        </mxCell>
        <mxCell id="OOM-nGGXsE_Pw0qRHjK8-10" value="ms Notificaciones" style="shape=module;align=left;spacingLeft=20;align=center;verticalAlign=top;whiteSpace=wrap;html=1;" vertex="1" parent="1">
          <mxGeometry x="490" y="210" width="100" height="50" as="geometry" />
        </mxCell>
        <mxCell id="OOM-nGGXsE_Pw0qRHjK8-11" value="ms Reglas Core" style="shape=module;align=left;spacingLeft=20;align=center;verticalAlign=top;whiteSpace=wrap;html=1;" vertex="1" parent="1">
          <mxGeometry x="345" y="300" width="100" height="50" as="geometry" />
        </mxCell>
        <mxCell id="OOM-nGGXsE_Pw0qRHjK8-12" value="ms Regulatizador" style="shape=module;align=left;spacingLeft=20;align=center;verticalAlign=top;whiteSpace=wrap;html=1;" vertex="1" parent="1">
          <mxGeometry x="490" y="20" width="100" height="50" as="geometry" />
        </mxCell>
        <mxCell id="OOM-nGGXsE_Pw0qRHjK8-13" value="ms Sftp" style="shape=module;align=left;spacingLeft=20;align=center;verticalAlign=top;whiteSpace=wrap;html=1;" vertex="1" parent="1">
          <mxGeometry x="655" y="210" width="100" height="50" as="geometry" />
        </mxCell>
        <mxCell id="OOM-nGGXsE_Pw0qRHjK8-14" value="" style="verticalLabelPosition=bottom;html=1;verticalAlign=top;align=center;strokeColor=none;fillColor=#00BEF2;shape=mxgraph.azure.mobile;pointerEvents=1;" vertex="1" parent="1">
          <mxGeometry x="60" y="52" width="35" height="50" as="geometry" />
        </mxCell>
        <mxCell id="OOM-nGGXsE_Pw0qRHjK8-15" value="" style="verticalLabelPosition=bottom;aspect=fixed;html=1;shape=mxgraph.salesforce.web;fillColorStyles=fillColor2,fillColor3,fillColor4;fillColor2=#032d60;fillColor3=#0d9dda;fillColor4=#ffffff;fillColor=none;strokeColor=none;" vertex="1" parent="1">
          <mxGeometry x="47.5" y="170" width="60" height="47.400000000000006" as="geometry" />
        </mxCell>
        <mxCell id="OOM-nGGXsE_Pw0qRHjK8-16" value="" style="aspect=fixed;sketch=0;html=1;dashed=0;whitespace=wrap;verticalLabelPosition=bottom;verticalAlign=top;fillColor=#2875E2;strokeColor=#ffffff;points=[[0.005,0.63,0],[0.1,0.2,0],[0.9,0.2,0],[0.5,0,0],[0.995,0.63,0],[0.72,0.99,0],[0.5,1,0],[0.28,0.99,0]];shape=mxgraph.kubernetes.icon2;prIcon=api" vertex="1" parent="1">
          <mxGeometry x="47.5" y="386" width="50" height="48" as="geometry" />
        </mxCell>
        <mxCell id="OOM-nGGXsE_Pw0qRHjK8-18" style="edgeStyle=orthogonalEdgeStyle;rounded=0;orthogonalLoop=1;jettySize=auto;html=1;entryX=1;entryY=0.5;entryDx=0;entryDy=0;" edge="1" parent="1" source="OOM-nGGXsE_Pw0qRHjK8-17" target="OOM-nGGXsE_Pw0qRHjK8-4">
          <mxGeometry relative="1" as="geometry" />
        </mxCell>
        <mxCell id="OOM-nGGXsE_Pw0qRHjK8-19" value="ms Campana" style="shape=folder;fontStyle=1;spacingTop=10;tabWidth=40;tabHeight=14;tabPosition=left;html=1;whiteSpace=wrap;" vertex="1" parent="1">
          <mxGeometry x="180" y="30" width="90" height="50" as="geometry" />
        </mxCell>
        <mxCell id="OOM-nGGXsE_Pw0qRHjK8-20" value="&lt;span style=&quot;font-weight: 400;&quot;&gt;ms Administracion&lt;/span&gt;" style="shape=folder;fontStyle=1;spacingTop=10;tabWidth=40;tabHeight=14;tabPosition=left;html=1;whiteSpace=wrap;" vertex="1" parent="1">
          <mxGeometry x="180" y="102" width="100" height="60" as="geometry" />
        </mxCell>
        <mxCell id="OOM-nGGXsE_Pw0qRHjK8-21" value="&lt;span style=&quot;font-weight: 400;&quot;&gt;ms Beneficios&lt;/span&gt;" style="shape=folder;fontStyle=1;spacingTop=10;tabWidth=40;tabHeight=14;tabPosition=left;html=1;whiteSpace=wrap;" vertex="1" parent="1">
          <mxGeometry x="180" y="190" width="100" height="50" as="geometry" />
        </mxCell>
        <mxCell id="OOM-nGGXsE_Pw0qRHjK8-23" value="ms Archivos" style="shape=folder;fontStyle=1;spacingTop=10;tabWidth=40;tabHeight=14;tabPosition=left;html=1;whiteSpace=wrap;" vertex="1" parent="1">
          <mxGeometry x="180" y="270" width="80" height="50" as="geometry" />
        </mxCell>
        <mxCell id="OOM-nGGXsE_Pw0qRHjK8-24" value="&lt;span style=&quot;font-weight: 400;&quot;&gt;ms Api integracion&lt;/span&gt;" style="shape=folder;fontStyle=1;spacingTop=10;tabWidth=40;tabHeight=14;tabPosition=left;html=1;whiteSpace=wrap;" vertex="1" parent="1">
          <mxGeometry x="355" y="380" width="90" height="60" as="geometry" />
        </mxCell>
        <mxCell id="OOM-nGGXsE_Pw0qRHjK8-25" value="&lt;span style=&quot;font-weight: 400;&quot;&gt;ms Cierre diario&lt;/span&gt;" style="shape=folder;fontStyle=1;spacingTop=10;tabWidth=40;tabHeight=14;tabPosition=left;html=1;whiteSpace=wrap;" vertex="1" parent="1">
          <mxGeometry x="650" y="112" width="110" height="50" as="geometry" />
        </mxCell>
        <mxCell id="OOM-nGGXsE_Pw0qRHjK8-26" value="&lt;span style=&quot;font-weight: 400;&quot;&gt;ms Autenticacion&lt;/span&gt;" style="shape=folder;fontStyle=1;spacingTop=10;tabWidth=40;tabHeight=14;tabPosition=left;html=1;whiteSpace=wrap;" vertex="1" parent="1">
          <mxGeometry x="348.3" y="160" width="90" height="60" as="geometry" />
        </mxCell>
        <mxCell id="OOM-nGGXsE_Pw0qRHjK8-30" value="" style="group" vertex="1" connectable="0" parent="1">
          <mxGeometry x="516.7" y="110" width="73.30000000000001" height="89" as="geometry" />
        </mxCell>
        <mxCell id="OOM-nGGXsE_Pw0qRHjK8-17" value="" style="points=[];aspect=fixed;html=1;align=center;shadow=0;dashed=0;fillColor=#FF6A00;strokeColor=none;shape=mxgraph.alibaba_cloud.kafka;" vertex="1" parent="OOM-nGGXsE_Pw0qRHjK8-30">
          <mxGeometry width="70.2" height="52" as="geometry" />
        </mxCell>
        <mxCell id="OOM-nGGXsE_Pw0qRHjK8-28" value="Kafka" style="text;html=1;whiteSpace=wrap;strokeColor=none;fillColor=none;align=center;verticalAlign=middle;rounded=0;" vertex="1" parent="OOM-nGGXsE_Pw0qRHjK8-30">
          <mxGeometry x="-3.1000000000000227" y="39" width="73.3" height="50" as="geometry" />
        </mxCell>
        <mxCell id="OOM-nGGXsE_Pw0qRHjK8-45" style="edgeStyle=orthogonalEdgeStyle;rounded=0;orthogonalLoop=1;jettySize=auto;html=1;" edge="1" parent="1" source="OOM-nGGXsE_Pw0qRHjK8-31" target="OOM-nGGXsE_Pw0qRHjK8-24">
          <mxGeometry relative="1" as="geometry" />
        </mxCell>
        <mxCell id="OOM-nGGXsE_Pw0qRHjK8-31" value="Keycloak" style="shape=module;align=left;spacingLeft=20;align=center;verticalAlign=top;whiteSpace=wrap;html=1;" vertex="1" parent="1">
          <mxGeometry x="180" y="390" width="100" height="50" as="geometry" />
        </mxCell>
        <mxCell id="OOM-nGGXsE_Pw0qRHjK8-33" style="edgeStyle=orthogonalEdgeStyle;rounded=0;orthogonalLoop=1;jettySize=auto;html=1;entryX=0.551;entryY=0.348;entryDx=0;entryDy=0;entryPerimeter=0;" edge="1" parent="1" source="OOM-nGGXsE_Pw0qRHjK8-12" target="OOM-nGGXsE_Pw0qRHjK8-17">
          <mxGeometry relative="1" as="geometry" />
        </mxCell>
        <mxCell id="OOM-nGGXsE_Pw0qRHjK8-34" style="edgeStyle=orthogonalEdgeStyle;rounded=0;orthogonalLoop=1;jettySize=auto;html=1;" edge="1" parent="1" source="OOM-nGGXsE_Pw0qRHjK8-25">
          <mxGeometry relative="1" as="geometry">
            <mxPoint x="580" y="136" as="targetPoint" />
          </mxGeometry>
        </mxCell>
        <mxCell id="OOM-nGGXsE_Pw0qRHjK8-44" style="edgeStyle=orthogonalEdgeStyle;rounded=0;orthogonalLoop=1;jettySize=auto;html=1;entryX=0.07;entryY=0.4;entryDx=0;entryDy=0;entryPerimeter=0;" edge="1" parent="1" source="OOM-nGGXsE_Pw0qRHjK8-16" target="OOM-nGGXsE_Pw0qRHjK8-31">
          <mxGeometry relative="1" as="geometry" />
        </mxCell>
        <mxCell id="OOM-nGGXsE_Pw0qRHjK8-46" value="1. web-administracion" style="text;html=1;whiteSpace=wrap;strokeColor=none;fillColor=none;align=center;verticalAlign=middle;rounded=0;" vertex="1" parent="1">
          <mxGeometry x="26.25" y="220" width="122.5" height="30" as="geometry" />
        </mxCell>
        <mxCell id="OOM-nGGXsE_Pw0qRHjK8-49" value="2. web-comercios" style="text;html=1;whiteSpace=wrap;strokeColor=none;fillColor=none;align=center;verticalAlign=middle;rounded=0;" vertex="1" parent="1">
          <mxGeometry x="26.25" y="250" width="102.5" height="30" as="geometry" />
        </mxCell>
        <mxCell id="OOM-nGGXsE_Pw0qRHjK8-50" value="Ganamovil/Yolo/ATM" style="text;html=1;whiteSpace=wrap;strokeColor=none;fillColor=none;align=center;verticalAlign=middle;rounded=0;" vertex="1" parent="1">
          <mxGeometry x="30" y="102" width="120" height="30" as="geometry" />
        </mxCell>
        <mxCell id="OOM-nGGXsE_Pw0qRHjK8-51" value="3. web-contact-center" style="text;html=1;whiteSpace=wrap;strokeColor=none;fillColor=none;align=center;verticalAlign=middle;rounded=0;" vertex="1" parent="1">
          <mxGeometry x="26.25" y="280" width="123.75" height="30" as="geometry" />
        </mxCell>
        <mxCell id="OOM-nGGXsE_Pw0qRHjK8-52" style="edgeStyle=orthogonalEdgeStyle;rounded=0;orthogonalLoop=1;jettySize=auto;html=1;entryX=0;entryY=0;entryDx=0;entryDy=15;entryPerimeter=0;" edge="1" parent="1" source="OOM-nGGXsE_Pw0qRHjK8-19" target="OOM-nGGXsE_Pw0qRHjK8-4">
          <mxGeometry relative="1" as="geometry" />
        </mxCell>
      </root>
    </mxGraphModel>
  </diagram>
  <diagram id="H2mVY3tkUoPxfi04WcDv" name="remesas">
    <mxGraphModel dx="808" dy="432" grid="1" gridSize="10" guides="1" tooltips="1" connect="1" arrows="1" fold="1" page="1" pageScale="1" pageWidth="850" pageHeight="1100" math="0" shadow="0">
      <root>
        <mxCell id="0" />
        <mxCell id="1" parent="0" />
        <mxCell id="06CbXgnT4wGmGunYRNDH-2" value="" style="points=[];aspect=fixed;html=1;align=center;shadow=0;dashed=0;fillColor=#FF6A00;strokeColor=none;shape=mxgraph.alibaba_cloud.kafka;" vertex="1" parent="1">
          <mxGeometry x="544.9000000000001" y="219" width="70.2" height="52" as="geometry" />
        </mxCell>
        <mxCell id="gqhBm46V6ydSV_ch7ugN-1" value="" style="verticalLabelPosition=bottom;html=1;verticalAlign=top;align=center;strokeColor=none;fillColor=#00BEF2;shape=mxgraph.azure.mobile;pointerEvents=1;" vertex="1" parent="1">
          <mxGeometry x="90" y="180" width="35" height="50" as="geometry" />
        </mxCell>
        <mxCell id="gqhBm46V6ydSV_ch7ugN-2" value="ATM/Yolo" style="text;html=1;whiteSpace=wrap;strokeColor=none;fillColor=none;align=center;verticalAlign=middle;rounded=0;" vertex="1" parent="1">
          <mxGeometry x="60" y="230" width="95" height="30" as="geometry" />
        </mxCell>
        <mxCell id="gqhBm46V6ydSV_ch7ugN-3" value="|Servicios" style="verticalAlign=top;align=left;spacingTop=8;spacingLeft=2;spacingRight=12;shape=cube;size=10;direction=south;fontStyle=4;html=1;whiteSpace=wrap;" vertex="1" parent="1">
          <mxGeometry x="210" y="180" width="100" height="70" as="geometry" />
        </mxCell>
        <mxCell id="gqhBm46V6ydSV_ch7ugN-4" value="Kafka" style="text;html=1;whiteSpace=wrap;strokeColor=none;fillColor=none;align=center;verticalAlign=middle;rounded=0;" vertex="1" parent="1">
          <mxGeometry x="590" y="271" width="60" height="30" as="geometry" />
        </mxCell>
        <mxCell id="yJMQXDDSh1Llwa_QE6lD-1" value="ms Bonificaciones" style="shape=module;align=left;spacingLeft=20;align=center;verticalAlign=top;whiteSpace=wrap;html=1;" vertex="1" parent="1">
          <mxGeometry x="610" y="120" width="130" height="50" as="geometry" />
        </mxCell>
        <mxCell id="uzwQlgg9LJrGUANSgagh-2" value="5152" style="shape=module;align=left;spacingLeft=20;align=center;verticalAlign=top;whiteSpace=wrap;html=1;" vertex="1" parent="1">
          <mxGeometry x="360" y="120" width="90" height="50" as="geometry" />
        </mxCell>
        <mxCell id="uzwQlgg9LJrGUANSgagh-3" style="edgeStyle=orthogonalEdgeStyle;rounded=0;orthogonalLoop=1;jettySize=auto;html=1;entryX=0;entryY=0;entryDx=40;entryDy=100;entryPerimeter=0;" edge="1" parent="1" source="gqhBm46V6ydSV_ch7ugN-1" target="gqhBm46V6ydSV_ch7ugN-3">
          <mxGeometry relative="1" as="geometry" />
        </mxCell>
        <mxCell id="uzwQlgg9LJrGUANSgagh-4" style="edgeStyle=orthogonalEdgeStyle;rounded=0;orthogonalLoop=1;jettySize=auto;html=1;entryX=0.107;entryY=0.457;entryDx=0;entryDy=0;entryPerimeter=0;" edge="1" parent="1" source="gqhBm46V6ydSV_ch7ugN-3" target="uzwQlgg9LJrGUANSgagh-2">
          <mxGeometry relative="1" as="geometry" />
        </mxCell>
        <mxCell id="uzwQlgg9LJrGUANSgagh-6" style="edgeStyle=orthogonalEdgeStyle;rounded=0;orthogonalLoop=1;jettySize=auto;html=1;entryX=0.59;entryY=0.184;entryDx=0;entryDy=0;entryPerimeter=0;" edge="1" parent="1" source="yJMQXDDSh1Llwa_QE6lD-1" target="06CbXgnT4wGmGunYRNDH-2">
          <mxGeometry relative="1" as="geometry" />
        </mxCell>
        <mxCell id="y3C3Ynn8Zng3jrYVdHfr-2" value="&lt;b&gt;PREMIACION REMESAS POR YOLO Y ATM&lt;/b&gt;" style="text;html=1;whiteSpace=wrap;strokeColor=none;fillColor=none;align=center;verticalAlign=middle;rounded=0;" vertex="1" parent="1">
          <mxGeometry x="150" y="50" width="130" height="80" as="geometry" />
        </mxCell>
        <mxCell id="y3C3Ynn8Zng3jrYVdHfr-3" value="2182" style="shape=module;align=left;spacingLeft=20;align=center;verticalAlign=top;whiteSpace=wrap;html=1;" vertex="1" parent="1">
          <mxGeometry x="360" y="280" width="90" height="50" as="geometry" />
        </mxCell>
        <mxCell id="y3C3Ynn8Zng3jrYVdHfr-4" style="edgeStyle=orthogonalEdgeStyle;rounded=0;orthogonalLoop=1;jettySize=auto;html=1;entryX=0.112;entryY=0.79;entryDx=0;entryDy=0;entryPerimeter=0;" edge="1" parent="1" source="gqhBm46V6ydSV_ch7ugN-3" target="y3C3Ynn8Zng3jrYVdHfr-3">
          <mxGeometry relative="1" as="geometry" />
        </mxCell>
        <mxCell id="y3C3Ynn8Zng3jrYVdHfr-6" style="edgeStyle=orthogonalEdgeStyle;rounded=0;orthogonalLoop=1;jettySize=auto;html=1;entryX=0.088;entryY=0.587;entryDx=0;entryDy=0;entryPerimeter=0;" edge="1" parent="1" source="uzwQlgg9LJrGUANSgagh-2" target="06CbXgnT4wGmGunYRNDH-2">
          <mxGeometry relative="1" as="geometry" />
        </mxCell>
        <mxCell id="y3C3Ynn8Zng3jrYVdHfr-7" style="edgeStyle=orthogonalEdgeStyle;rounded=0;orthogonalLoop=1;jettySize=auto;html=1;entryX=0.617;entryY=1.008;entryDx=0;entryDy=0;entryPerimeter=0;" edge="1" parent="1" source="y3C3Ynn8Zng3jrYVdHfr-3" target="06CbXgnT4wGmGunYRNDH-2">
          <mxGeometry relative="1" as="geometry" />
        </mxCell>
      </root>
    </mxGraphModel>
  </diagram>
</mxfile>
